<svg width="77" height="24" viewBox="0 0 77 24" fill="none" xmlns="http://www.w3.org/2000/svg">
<g clip-path="url(#clip0_4003_406)">
<path d="M6.325 21L7.95 13.975L2.5 9.25L9.7 8.625L12.5 2L15.3 8.625L22.5 9.25L17.05 13.975L18.675 21L12.5 17.275L6.325 21Z" fill="black"/>
<path d="M32.325 21L33.95 13.975L28.5 9.25L35.7 8.625L38.5 2L41.3 8.625L48.5 9.25L43.05 13.975L44.675 21L38.5 17.275L32.325 21Z" fill="black"/>
<path d="M58.325 21L59.95 13.975L54.5 9.25L61.7 8.625L64.5 2L67.3 8.625L74.5 9.25L69.05 13.975L70.675 21L64.5 17.275L58.325 21Z" fill="black"/>
</g>
<defs>
<clipPath id="clip0_4003_406">
<rect width="76" height="24" fill="white" transform="translate(0.5)"/>
</clipPath>
</defs>
</svg>
