<svg width="77" height="24" viewBox="0 0 77 24" fill="none" xmlns="http://www.w3.org/2000/svg">
<g clip-path="url(#clip0_4003_491)">
<path d="M5.99175 21L7.61675 13.975L2.16675 9.25L9.36675 8.625L12.1667 2L14.9667 8.625L22.1667 9.25L16.7167 13.975L18.3417 21L12.1667 17.275L5.99175 21Z" fill="black"/>
<path d="M35.0167 16.825L38.1667 14.925L41.3167 16.85L40.4917 13.25L43.2667 10.85L39.6167 10.525L38.1667 7.125L36.7167 10.5L33.0667 10.825L35.8417 13.25L35.0167 16.825ZM31.9917 21L33.6167 13.975L28.1667 9.25L35.3667 8.625L38.1667 2L40.9667 8.625L48.1667 9.25L42.7167 13.975L44.3417 21L38.1667 17.275L31.9917 21Z" fill="black"/>
<path d="M61.0167 16.825L64.1667 14.925L67.3167 16.85L66.4917 13.25L69.2667 10.85L65.6167 10.525L64.1667 7.125L62.7167 10.5L59.0667 10.825L61.8417 13.25L61.0167 16.825ZM57.9917 21L59.6167 13.975L54.1667 9.25L61.3667 8.625L64.1667 2L66.9667 8.625L74.1667 9.25L68.7167 13.975L70.3417 21L64.1667 17.275L57.9917 21Z" fill="black"/>
</g>
<defs>
<clipPath id="clip0_4003_491">
<rect width="76" height="24" fill="white" transform="translate(0.166748)"/>
</clipPath>
</defs>
</svg>
